<?xml version="1.0" encoding="utf-8"?>
<!-- Generator: Adobe Illustrator 12.0.0, SVG Export Plug-In  -->
<!DOCTYPE svg PUBLIC "-//W3C//DTD SVG 1.1//EN" "http://www.w3.org/Graphics/SVG/1.1/DTD/svg11.dtd" [
	<!ENTITY ns_flows "http://ns.adobe.com/Flows/1.0/">
	<!ENTITY ns_svg "http://www.w3.org/2000/svg">
	<!ENTITY ns_xlink "http://www.w3.org/1999/xlink">
]>
<svg  version="1.1" xmlns="&ns_svg;" xmlns:xlink="&ns_xlink;" xmlns:a="http://ns.adobe.com/AdobeSVGViewerExtensions/3.0/"
	 width="226" height="226" viewBox="-0.5 -0.5 226 226" enable-background="new -0.5 -0.5 226 226" xml:space="preserve">
<defs>
</defs>
<path fill="#015FAE" d="M163.0058594,51.4331055c0,15.9956055,0,80.1010742,0,80.1010742
	c0,3.4355469-0.4130859,6.8212891-1.1591797,10.1425781L61.269043,51.4663086c0-0.0107422,0-0.0224609,0-0.0332031h-0.0375977
	h-5.7509766v3.8876953v76.2133789c0,42.9501953,56.6572266,81.0214844,56.6572266,81.0214844
	s56.6572266-38.0712891,56.6572266-81.0214844V51.4331055H163.0058594z M112.1376953,202.7714844
	c-11.6298828-8.6230469-50.8686523-37.5576172-50.8686523-71.2373047c0,0,0-47.6293945,0-71.0214844l98.4438477,88.2958984
	C150.03125,174.7783203,121.71875,195.6669922,112.1376953,202.7714844z"/>
<path fill="#FFFFFF" d="M61.269043,60.5126953c0,23.3920898,0,71.0214844,0,71.0214844
	c0,33.6796875,39.2387695,62.6142578,50.8686523,71.2373047c9.5810547-7.1044922,37.8935547-27.9931641,47.5751953-53.9628906
	L61.269043,60.5126953z"/>
<polygon fill="#08813E" points="147.75,129.0322266 149.3417969,130.4599609 149.3417969,75.9282227 157.2392578,75.9282227 
	157.2392578,74.3359375 139.8525391,74.3359375 139.8525391,75.9282227 147.75,75.9282227 "/>
<path fill="#08813E" d="M118.2421875,102.5668945c0-1.4672852,0-3.3598633,0-5.4428711l14.1826172,12.7197266
	c0,2.0043945,0,3.8505859,0,5.4433594l1.5908203,1.4277344V77.3701172l-0.3867188-0.2319336
	c-0.1894531-0.1142578-4.7167969-2.8022461-8.8339844-2.8022461c-4.171875,0-7.6943359,2.7431641-7.8417969,2.8603516
	l-0.3027344,0.2387695v23.7045898L118.2421875,102.5668945z M118.2421875,78.2294922
	c0.8544922-0.5957031,3.5527344-2.3012695,6.5527344-2.3012695c3.0615234,0,6.5253906,1.7558594,7.6298828,2.3598633
	c0,0.5712891,0,17.0898438,0,29.4174805l-14.1826172-12.7197266
	C118.2421875,87.4824219,118.2421875,78.6811523,118.2421875,78.2294922z"/>
<path fill="#08813E" d="M93.6845703,80.5410156c0-1.1708984,0-2.4936523,0-3.4501953
	c1.8652344,1.6728516,7.362793,6.6030273,7.362793,6.6030273s7.21875-5.3666992,9.1499023-6.8027344
	c0,1.9594727,0,12.4838867,0,18.4599609l1.5922852,1.4277344V74.3359375h-0.8232422
	c-2.3608398,1.7548828-9.0546875,6.7319336-9.824707,7.3046875c-0.6811523-0.6113281-5.9916992-5.3735352-8.144043-7.3046875
	h-0.9047852v4.7768555L93.6845703,80.5410156z"/>
<path fill="#08813E" d="M109.605957,59.0444336c0,0,0,3.8085938,0,4.9926758c-1.4760742,0-29.1313477,0-30.6069336,0
	c0-1.184082,0-4.9926758,0-4.9926758h-1.5917969v6.5844727h33.7905273v-6.5844727H109.605957z"/>
<rect x="125.1621094" y="55.9692383" fill="#08813E" width="1.5917969" height="14.2905273"/>
<path fill="#08813E" d="M144.15625,55.1733398c0,0,0,7.5449219,0,8.8637695c-1.1503906,0-4.1601563,0-4.1601563,0v6.2226563
	h1.5908203c0,0,0-3.4716797,0-4.6308594c1.4316406,0,15.3759766,0,15.3759766,0V55.1733398H144.15625z M155.3710938,56.7651367
	c0,1.1889648,0,6.0834961,0,7.2719727c-0.9443359,0-5.4189453,0-9.6230469,0c0-1.1884766,0-6.0830078,0-7.2719727
	C147.0166016,56.7651367,154.1025391,56.7651367,155.3710938,56.7651367z"/>
<circle fill="#08813E" cx="90.8652344" cy="56.6928711" r="1.9897461"/>
<circle fill="#08813E" cx="97.7392578" cy="56.6928711" r="1.9897461"/>
<path fill="#E8261E" d="M88.3325195,84.7871094v98.0234375c-0.0048828-0.0048828-0.0102539-0.0107422-0.0161133-0.0166016
	c-0.746582-0.7373047-1.4931641-1.4892578-2.237793-2.2558594c-0.0141602-0.0136719-0.0273438-0.0273438-0.0410156-0.0419922
	c-0.746582-0.7685547-1.4907227-1.5517578-2.2299805-2.3476563c-0.0073242-0.0078125-0.0146484-0.015625-0.0219727-0.0234375
	c-4.4956055-4.8427734-8.8178711-10.1894531-12.4541016-15.9169922c-0.0004883-0.0019531-0.0019531-0.0029297-0.0029297-0.0048828
	V69.5361328L88.3325195,84.7871094z M152.9462891,142.7412109l-17.0039063-15.2519531v55.3203125
	c0.0292969-0.0283203,0.0585938-0.0576172,0.0878906-0.0878906c0.6513672-0.6425781,1.3017578-1.3017578,1.9521484-1.9667969
	c0.2148438-0.2207031,0.4306641-0.4462891,0.6455078-0.6699219c0.4814453-0.5,0.9619141-1.0048828,1.4394531-1.5166016
	c0.2353516-0.25,0.46875-0.5,0.7021484-0.7529297c0.5136719-0.5566406,1.0244141-1.1220703,1.5322266-1.6914063
	c0.1708984-0.1914063,0.3427734-0.3789063,0.5126953-0.5712891c0.6601563-0.7490234,1.3144531-1.5087891,1.9609375-2.2792969
	c0.1757813-0.2099609,0.3476563-0.4228516,0.5224609-0.6337891c0.4794922-0.5791016,0.9550781-1.1630859,1.4267578-1.7539063
	c0.2226563-0.2792969,0.4423828-0.5625,0.6630859-0.8447266c0.4355469-0.5576172,0.8652344-1.1220703,1.2910156-1.6884766
	c0.2041016-0.2714844,0.4072266-0.5400391,0.6074219-0.8125c0.5761719-0.7851563,1.1425781-1.5761719,1.6962891-2.3759766
	c0.046875-0.0693359,0.0957031-0.1367188,0.1425781-0.2060547c0.5595703-0.8154297,1.1025391-1.640625,1.6347656-2.4716797
	c0.0634766-0.0986328,0.1240234-0.2011719,0.1865234-0.2998047V142.7412109z M113.8964844,201.4638672
	c0.2363281-0.1767578,0.4833984-0.3603516,0.7324219-0.546875c0.0966797-0.0732422,0.1933594-0.1455078,0.2919922-0.21875
	c0.2539063-0.1904297,0.515625-0.3886719,0.7822266-0.5898438c0.1103516-0.0830078,0.2226563-0.1679688,0.3339844-0.2519531
	c0.2685547-0.2041016,0.5410156-0.4121094,0.8212891-0.625c0.1152344-0.0888672,0.234375-0.1816406,0.3525391-0.2714844
	c0.2880859-0.21875,0.578125-0.4423828,0.8759766-0.6728516c0.109375-0.0849609,0.2226563-0.1738281,0.3330078-0.2587891
	c0.7148438-0.5537109,1.4521484-1.1318359,2.2197266-1.7402344v-82.5244141l-17.0039063-15.2509766v97.7753906
	c3.0039063,2.3847656,5.6303711,4.3505859,7.6313477,5.8369141c0.0473633,0.0361328,0.0961914,0.0712891,0.1435547,0.1064453
	c0.2514648,0.1865234,0.496582,0.3691406,0.7270508,0.5400391c0.4501953-0.3339844,0.9492188-0.7041016,1.4775391-1.0976563
	C113.7089844,201.6044922,113.8007813,201.5341797,113.8964844,201.4638672z"/>
<circle cx="112.1379395" cy="165.0849609" r="22.2858887"/>
<path fill="#FFFFFF" d="M120.0908203,145.0478516c4.5634766,1.8193359,8.3632813,5.1503906,10.7763672,9.3759766l-2.1875,8.5888672
	l-0.0839844-0.0009766l-7.8369141-0.2851563l-0.5458984-0.0126953l-8.0195313-5.6455078v-5.7451172l-0.0039063-0.2714844
	L120.0908203,145.0478516z M128.7685547,163.7392578l-0.1933594-0.0039063l-7.8388672-0.2851563l-0.1484375-0.0029297
	l-4.1728516,9.5390625l0.1181641,0.1416016l4.7021484,5.7695313l0.1699219,0.2021484l7.5644531-0.5429688
	c1.6630859-2.0683594,2.9121094-4.3984375,3.7080078-6.8935547L128.7685547,163.7392578z M107.3378906,172.9414063
	l-3.0839844-8.8583984l-0.1191406,0.0087891l-7.3481445,0.0712891h-0.234375l-4.9238281,7.5917969
	c0.7636719,2.3574219,1.9345703,4.5664063,3.4760742,6.546875l7.6943359,0.7207031l0.1162109-0.1796875l4.2758789-5.6992188
	L107.3378906,172.9414063z M96.5136719,163.4404297h0.2695313l7.3212891-0.0712891l0.4677734-0.0351563l6.8979492-6.1953125
	c0-2.8554688,0-5.8085938,0-5.8085938l-0.0053711-0.296875l-7.4868164-5.9169922
	c-2.6196289,1.0703125-5.0253906,2.6601563-7.0874023,4.7216797c-2.1923828,2.1914063-3.8481445,4.7753906-4.9160156,7.5898438
	L96.5136719,163.4404297z M120.7675781,179.4648438l-0.0888672-0.1044922l-4.7021484-5.7705078
	c0,0-0.0751953-0.0908203-0.1972656-0.2333984h-7.8486328c-0.0981445,0.1347656-0.1591797,0.2158203-0.1591797,0.2158203
	l-4.2636719,5.6845703l-0.1269531,0.1962891l2.8535156,6.3740234c1.8969727,0.5361328,3.8774414,0.8193359,5.9033203,0.8193359
	c1.6435547,0,3.2548828-0.1875,4.8193359-0.5439453L120.7675781,179.4648438z"/>
<path fill="#08813E" d="M107.5483398,28.1860352c-5.8647461,0-14.8540039,0-14.8540039,0s7.2729492,5.2832031,12.0170898,8.7304688
	c-1.8125,5.5776367-4.590332,14.1264648-4.590332,14.1264648s7.2724609-5.2841797,12.0166016-8.7304688
	c4.7441406,3.4462891,12.0166016,8.7304688,12.0166016,8.7304688s-2.7773438-8.5488281-4.5898438-14.1264648
	c4.7441406-3.4472656,12.0166016-8.7304688,12.0166016-8.7304688s-8.9892578,0-14.8535156,0
	c-1.8125-5.5771484-4.5898438-14.1254883-4.5898438-14.1254883S109.3603516,22.6088867,107.5483398,28.1860352z
	 M112.1376953,18.7431641c0.371582,1.1425781,1.6669922,5.1293945,3.0683594,9.4428711c-2.9707031,0-3.1660156,0-6.1367188,0
	C110.4716797,23.8725586,111.7666016,19.8857422,112.1376953,18.7431641z M107.0776367,29.6333008
	c-0.9179688,2.8251953-0.9780273,3.0107422-1.8955078,5.8359375c-3.6704102-2.6660156-7.0615234-5.1298828-8.0336914-5.8359375
	C98.3496094,29.6333008,102.5419922,29.6333008,107.0776367,29.6333008z M105.9423828,37.8110352
	c2.4033203,1.7460938,2.5615234,1.8608398,4.9643555,3.6069336c-3.6694336,2.6660156-7.0610352,5.1303711-8.0327148,5.8359375
	C103.2451172,46.1113281,104.5410156,42.1245117,105.9423828,37.8110352z M115.6767578,29.6333008
	c1.046875,3.2231445,1.1386719,3.5073242,2.1865234,6.7304688c-2.7421875,1.9916992-2.9833984,2.1679688-5.7255859,4.159668
	c-2.7416992-1.9916992-2.9833984-2.1674805-5.7250977-4.159668c1.0473633-3.2231445,1.1401367-3.5073242,2.1870117-6.7304688
	C111.9887695,29.6333008,112.2875977,29.6333008,115.6767578,29.6333008z M127.1269531,29.6333008
	c-0.9726563,0.7060547-4.3632813,3.1699219-8.0322266,5.8359375c-0.9189453-2.8251953-0.9785156-3.0107422-1.8974609-5.8359375
	C121.7333984,29.6333008,125.9257813,29.6333008,127.1269531,29.6333008z M118.3330078,37.8110352
	c1.4023438,4.3134766,2.6972656,8.3007813,3.0683594,9.4428711c-0.9716797-0.7055664-4.3632813-3.1699219-8.0327148-5.8359375
	C115.7714844,39.671875,115.9296875,39.5571289,118.3330078,37.8110352z"/>
<path fill="#E8261E" d="M84.4741211,31.3681641c0-8.5029297,5.6420898-15.6855469,13.3857422-18.0146484
	c-1.7182617-0.5170898-3.5395508-0.7983398-5.4267578-0.7983398c-10.3901367,0-18.8125,8.4228516-18.8125,18.8129883
	c0,10.3896484,8.4223633,18.8125,18.8125,18.8125c1.887207,0,3.7084961-0.28125,5.4267578-0.7978516
	C90.1162109,47.0527344,84.4741211,39.8706055,84.4741211,31.3681641z"/>
<path fill="#FFFFFF" d="M79.6352539,30.6445313c0-3.9394531,2.253418-7.3452148,5.5361328-9.0209961
	c-0.1567383-0.0083008-0.3125-0.0239258-0.4711914-0.0239258c-4.9951172,0-9.0449219,4.0493164-9.0449219,9.0449219
	c0,4.9951172,4.0498047,9.0444336,9.0449219,9.0444336c0.1586914,0,0.3144531-0.015625,0.4716797-0.0239258
	C81.8886719,37.9897461,79.6352539,34.5839844,79.6352539,30.6445313z"/>
<path fill="#E8261E" d="M60.6118164,35.3232422c0-4.1660156,2.7651367-7.6855469,6.5595703-8.8271484
	c-0.8427734-0.253418-1.7348633-0.3911133-2.6591797-0.3911133c-5.0913086,0-9.2182617,4.1269531-9.2182617,9.2182617
	c0,5.0908203,4.1269531,9.2182617,9.2182617,9.2182617c0.9243164,0,1.8164063-0.1376953,2.6591797-0.3911133
	C63.3769531,43.0092773,60.6118164,39.4897461,60.6118164,35.3232422z"/>
<path fill="#FFFFFF" d="M58.2402344,34.96875c0-1.9301758,1.1044922-3.5991211,2.7133789-4.4204102
	c-0.0766602-0.0039063-0.1533203-0.0112305-0.230957-0.0112305c-2.4477539,0-4.4316406,1.984375-4.4316406,4.4316406
	c0,2.4477539,1.9838867,4.4321289,4.4316406,4.4321289c0.0776367,0,0.1542969-0.0078125,0.230957-0.0117188
	C59.3447266,38.5678711,58.2402344,36.8989258,58.2402344,34.96875z"/>
<path fill="#E8261E" d="M139.8017578,31.3681641c0-8.5029297-5.6425781-15.6855469-13.3857422-18.0146484
	c1.7177734-0.5170898,3.5390625-0.7983398,5.4267578-0.7983398c10.3896484,0,18.8125,8.4228516,18.8125,18.8129883
	c0,10.3896484-8.4228516,18.8125-18.8125,18.8125c-1.8876953,0-3.7089844-0.28125-5.4267578-0.7978516
	C134.1591797,47.0527344,139.8017578,39.8706055,139.8017578,31.3681641z"/>
<path fill="#FFFFFF" d="M144.640625,30.6445313c0-3.9394531-2.2539063-7.3452148-5.5361328-9.0209961
	c0.15625-0.0083008,0.3115234-0.0239258,0.4707031-0.0239258c4.9951172,0,9.0449219,4.0493164,9.0449219,9.0449219
	c0,4.9951172-4.0498047,9.0444336-9.0449219,9.0444336c-0.1591797,0-0.3144531-0.015625-0.4716797-0.0239258
	C142.3867188,37.9897461,144.640625,34.5839844,144.640625,30.6445313z"/>
<path fill="#E8261E" d="M163.6640625,35.3232422c0-4.1660156-2.765625-7.6855469-6.5595703-8.8271484
	c0.8417969-0.253418,1.734375-0.3911133,2.6591797-0.3911133c5.0908203,0,9.2177734,4.1269531,9.2177734,9.2182617
	c0,5.0908203-4.1269531,9.2182617-9.2177734,9.2182617c-0.9248047,0-1.8173828-0.1376953-2.6591797-0.3911133
	C160.8984375,43.0092773,163.6640625,39.4897461,163.6640625,35.3232422z"/>
<path fill="#FFFFFF" d="M166.0351563,34.96875c0-1.9301758-1.1044922-3.5991211-2.7128906-4.4204102
	c0.0761719-0.0039063,0.1523438-0.0112305,0.2304688-0.0112305c2.4472656,0,4.4316406,1.984375,4.4316406,4.4316406
	c0,2.4477539-1.984375,4.4321289-4.4316406,4.4321289c-0.078125,0-0.1542969-0.0078125-0.2304688-0.0117188
	C164.9306641,38.5678711,166.0351563,36.8989258,166.0351563,34.96875z"/>
<rect opacity="0" fill="#FFFFFF" width="225" height="225"/>
</svg>
